<svg width="209" height="72" viewBox="0 0 209 72" fill="none" xmlns="http://www.w3.org/2000/svg">
<circle cx="42.6425" cy="30.5174" r="20.7121" fill="white"/>
<circle cx="62.1361" cy="60.9763" r="10.9652" fill="white"/>
<circle cx="10.9652" cy="51.2294" r="10.9652" fill="white"/>
<circle cx="10.9652" cy="11.0237" r="10.9652" fill="white"/>
<circle cx="67.0095" cy="9.80541" r="6.09178" fill="white"/>
<path d="M100.652 34.9162V33.6504L102.4 33.5066C102.479 33.5066 102.553 33.4587 102.622 33.3628C102.691 33.2573 102.726 33.1614 102.726 33.0751C102.726 33.0368 102.721 33.0128 102.711 33.0032L100.622 27.6094H93.6166L91.6022 32.9169C91.5924 32.9361 91.5874 32.9648 91.5874 33.0032C91.5874 33.1183 91.6368 33.2333 91.7355 33.3484C91.8442 33.4539 91.9429 33.5066 92.0318 33.5066L93.8239 33.6504V34.9162H87.7217V33.6504L89.4842 33.2909L96.5492 14.6788H98.8302L105.866 32.8594C105.935 33.0607 105.999 33.195 106.058 33.2621C106.127 33.3292 106.275 33.382 106.502 33.4203L107.865 33.6504V34.9162H100.652ZM97.0972 18.476L94.1498 26.1999H100.074L97.0972 18.476Z" fill="white"/>
<path d="M135.894 26.7896C135.677 26.8088 135.514 26.8807 135.405 27.0053C135.306 27.1204 135.257 27.2546 135.257 27.4081V34.2114C134.645 34.4319 133.993 34.6285 133.302 34.8011C132.71 34.9545 132.028 35.0888 131.258 35.2039C130.498 35.3285 129.708 35.3908 128.888 35.3908C127.763 35.3908 126.716 35.2614 125.748 35.0025C124.79 34.7436 123.917 34.3792 123.127 33.9094C122.347 33.4395 121.655 32.8833 121.053 32.2409C120.451 31.5888 119.942 30.8793 119.527 30.1121C119.123 29.345 118.817 28.53 118.609 27.667C118.402 26.7944 118.298 25.9026 118.298 24.9917C118.298 23.4478 118.55 22.0431 119.054 20.7773C119.557 19.502 120.283 18.4137 121.231 17.5123C122.179 16.6109 123.329 15.9157 124.682 15.4267C126.044 14.9281 127.575 14.6788 129.273 14.6788C129.787 14.6788 130.28 14.7075 130.754 14.7651C131.238 14.813 131.702 14.8801 132.147 14.9664C132.591 15.0432 133.026 15.1342 133.45 15.2397L134.724 15.5562L135.227 15.6856V20.4465H133.406L132.917 17.8C132.887 17.6274 132.813 17.4835 132.695 17.3685C132.576 17.2438 132.448 17.1527 132.31 17.0952C132.27 17.0856 132.211 17.0616 132.132 17.0233C131.974 16.9561 131.791 16.8842 131.584 16.8075C131.377 16.7308 131.144 16.6589 130.888 16.5918C130.641 16.5151 130.369 16.4527 130.073 16.4048C129.787 16.3568 129.481 16.3329 129.155 16.3329C128.059 16.3329 127.057 16.5198 126.148 16.8938C125.24 17.2678 124.46 17.8143 123.808 18.5335C123.156 19.2527 122.648 20.1445 122.282 21.2088C121.927 22.2636 121.749 23.4766 121.749 24.8478C121.749 26.2574 121.932 27.5135 122.297 28.6163C122.663 29.719 123.181 30.6491 123.852 31.4066C124.534 32.1642 125.353 32.7443 126.311 33.147C127.269 33.5402 128.34 33.7367 129.525 33.7367C129.861 33.7367 130.182 33.7128 130.488 33.6648C130.794 33.6169 131.065 33.5689 131.302 33.521C131.539 33.4635 131.737 33.4107 131.895 33.3628C132.053 33.3148 132.152 33.2909 132.191 33.2909V27.4081C132.191 27.2546 132.137 27.1204 132.028 27.0053C131.929 26.8807 131.771 26.8088 131.554 26.7896L129.525 26.6457V25.3656H137.434V26.6457L135.894 26.7896Z" fill="white"/>
<path d="M148.312 34.9162V33.6504L150.119 33.5354C150.336 33.5162 150.494 33.4395 150.593 33.3052C150.701 33.171 150.756 33.032 150.756 32.8881V17.1815C150.756 17.0376 150.701 16.9034 150.593 16.7787C150.494 16.6541 150.336 16.5822 150.119 16.563L148.312 16.4479V15.1534H156.31V16.4479L154.458 16.563C154.251 16.5822 154.093 16.6541 153.984 16.7787C153.876 16.9034 153.822 17.0376 153.822 17.1815V32.8881C153.822 33.032 153.876 33.171 153.984 33.3052C154.093 33.4395 154.251 33.5162 154.458 33.5354L156.31 33.6504V34.9162H148.312Z" fill="white"/>
<path d="M167.232 34.9162V33.6504L168.994 33.5354C169.212 33.5162 169.369 33.4395 169.468 33.3052C169.577 33.171 169.631 33.032 169.631 32.8881V17.1815C169.631 17.0376 169.577 16.8986 169.468 16.7644C169.369 16.6301 169.212 16.5534 168.994 16.5342L167.232 16.4192V15.1534H174.978V16.4192L173.364 16.5342C173.146 16.5534 172.979 16.6301 172.86 16.7644C172.751 16.8986 172.697 17.0376 172.697 17.1815V33.4778H179.066C179.204 33.4778 179.342 33.4299 179.481 33.334C179.629 33.2285 179.713 33.1087 179.732 32.9744L180.221 29.4361H181.984V34.9162H167.232Z" fill="white"/>
<path d="M192.609 34.9162V33.6504L194.179 33.5354C194.397 33.5162 194.56 33.4395 194.668 33.3052C194.787 33.171 194.846 33.032 194.846 32.8881V17.1815C194.846 17.0376 194.787 16.8986 194.668 16.7644C194.56 16.6301 194.397 16.5534 194.179 16.5342L192.609 16.4192V15.1534H207.347V19.5404H205.525L205.066 17.1239C205.046 16.9801 204.982 16.8507 204.873 16.7356C204.774 16.6205 204.656 16.563 204.518 16.563H197.941V23.8985H202.489C202.627 23.8985 202.75 23.841 202.859 23.7259C202.977 23.6109 203.037 23.5006 203.037 23.3951L203.348 21.367H204.888V27.9402H203.348L203.037 25.8978C203.037 25.7923 202.977 25.6773 202.859 25.5526C202.74 25.428 202.617 25.3656 202.489 25.3656H197.941V33.4778H205.614C205.742 33.4778 205.861 33.4107 205.969 33.2765C206.078 33.1422 206.142 33.0224 206.162 32.9169L206.71 29.9971H208.339V34.9162H192.609Z" fill="white"/>
<path d="M87.7217 51.1317V44.017H90.0744C90.8554 44.017 91.4419 44.1767 91.8341 44.4959C92.2295 44.8152 92.4272 45.2875 92.4272 45.913C92.4272 46.2453 92.3316 46.5401 92.1405 46.7974C91.9494 47.0515 91.6891 47.2486 91.3596 47.3887C91.7484 47.4962 92.0548 47.7014 92.2789 48.0044C92.5063 48.3041 92.62 48.6624 92.62 49.0794C92.62 49.7179 92.4107 50.2196 91.9922 50.5844C91.5737 50.9493 90.9823 51.1317 90.2178 51.1317H87.7217ZM88.6707 47.804V50.3645H90.2375C90.6791 50.3645 91.0267 50.2522 91.2805 50.0274C91.5375 49.7993 91.666 49.4866 91.666 49.0892C91.666 48.2324 91.1948 47.804 90.2524 47.804H88.6707ZM88.6707 47.0515H90.1041C90.5193 47.0515 90.8505 46.9489 91.0976 46.7437C91.348 46.5385 91.4732 46.2599 91.4732 45.9081C91.4732 45.5172 91.3579 45.2338 91.1272 45.0579C90.8966 44.8787 90.5456 44.7891 90.0744 44.7891H88.6707V47.0515Z" fill="white"/>
<path d="M99.1088 47.8431H95.9899V50.3645H99.613V51.1317H95.0409V44.017H99.5636V44.7891H95.9899V47.076H99.1088V47.8431Z" fill="white"/>
<path d="M102.761 50.3645H106.171V51.1317H101.807V44.017H102.761V50.3645Z" fill="white"/>
<path d="M112.339 49.2749H109.324L108.646 51.1317H107.668L110.416 44.017H111.246L113.999 51.1317H113.026L112.339 49.2749ZM109.61 48.5028H112.057L110.831 45.1751L109.61 48.5028Z" fill="white"/>
<path d="M118.62 48.2536H116.929V51.1317H115.976V44.017H118.358C119.169 44.017 119.791 44.1995 120.226 44.5643C120.665 44.9292 120.884 45.4602 120.884 46.1573C120.884 46.6003 120.762 46.9864 120.518 47.3154C120.277 47.6444 119.941 47.8904 119.51 48.0533L121.2 51.0731V51.1317H120.182L118.62 48.2536ZM116.929 47.4864H118.388C118.859 47.4864 119.233 47.3659 119.51 47.1248C119.79 46.8838 119.93 46.5613 119.93 46.1573C119.93 45.7175 119.796 45.3804 119.529 45.1458C119.266 44.9113 118.884 44.7924 118.383 44.7891H116.929V47.4864Z" fill="white"/>
<path d="M128.297 44.017V48.8546C128.294 49.5257 128.079 50.0746 127.654 50.5014C127.233 50.9281 126.659 51.1676 125.934 51.2197L125.682 51.2295C124.895 51.2295 124.267 51.0193 123.799 50.5991C123.331 50.1789 123.094 49.6006 123.087 48.8644V44.017H124.026V48.8351C124.026 49.3498 124.17 49.7505 124.456 50.0372C124.743 50.3206 125.152 50.4623 125.682 50.4623C126.219 50.4623 126.629 50.3206 126.913 50.0372C127.2 49.7537 127.343 49.3547 127.343 48.84V44.017H128.297Z" fill="white"/>
<path d="M132.927 47.9604C132.113 47.7291 131.52 47.4457 131.148 47.1102C130.779 46.7714 130.594 46.3544 130.594 45.8592C130.594 45.2989 130.82 44.8363 131.271 44.4715C131.726 44.1034 132.316 43.9193 133.041 43.9193C133.535 43.9193 133.975 44.0138 134.361 44.2027C134.749 44.3917 135.049 44.6523 135.26 44.9846C135.474 45.3168 135.581 45.6801 135.581 46.0742H134.628C134.628 45.6442 134.489 45.3071 134.212 45.0627C133.936 44.8152 133.545 44.6914 133.041 44.6914C132.573 44.6914 132.207 44.794 131.944 44.9992C131.683 45.2012 131.553 45.483 131.553 45.8446C131.553 46.1345 131.677 46.3805 131.924 46.5824C132.174 46.7811 132.598 46.9636 133.194 47.1297C133.794 47.2959 134.262 47.4799 134.598 47.6819C134.937 47.8806 135.188 48.1135 135.349 48.3806C135.514 48.6478 135.596 48.9621 135.596 49.3237C135.596 49.9003 135.369 50.3629 134.914 50.7115C134.459 51.0568 133.852 51.2295 133.09 51.2295C132.596 51.2295 132.135 51.1366 131.706 50.9509C131.278 50.762 130.947 50.5046 130.713 50.1789C130.482 49.8531 130.367 49.4834 130.367 49.0696H131.321C131.321 49.4996 131.481 49.8401 131.8 50.0909C132.123 50.3385 132.553 50.4623 133.09 50.4623C133.591 50.4623 133.975 50.3613 134.242 50.1593C134.509 49.9573 134.642 49.6821 134.642 49.3335C134.642 48.9849 134.519 48.7162 134.272 48.5272C134.025 48.335 133.576 48.1461 132.927 47.9604Z" fill="white"/>
<path d="M146.646 48.8742C146.557 49.6267 146.276 50.2082 145.801 50.6186C145.33 51.0259 144.702 51.2295 143.918 51.2295C143.068 51.2295 142.386 50.9281 141.872 50.3255C141.361 49.7228 141.106 48.9165 141.106 47.9067V47.2226C141.106 46.5613 141.224 45.9798 141.461 45.4781C141.702 44.9764 142.041 44.592 142.48 44.3249C142.918 44.0545 143.425 43.9193 144.002 43.9193C144.766 43.9193 145.379 44.1311 145.841 44.5546C146.302 44.9748 146.571 45.5579 146.646 46.3039H145.692C145.61 45.7371 145.43 45.3266 145.154 45.0725C144.88 44.8184 144.496 44.6914 144.002 44.6914C143.396 44.6914 142.92 44.9129 142.574 45.3559C142.231 45.799 142.059 46.4293 142.059 47.247V47.936C142.059 48.708 142.223 49.3221 142.549 49.7782C142.875 50.2342 143.331 50.4623 143.918 50.4623C144.445 50.4623 144.849 50.345 145.129 50.1105C145.412 49.8726 145.6 49.4606 145.692 48.8742H146.646Z" fill="white"/>
<path d="M154.494 47.804C154.494 48.5012 154.376 49.1104 154.139 49.6316C153.901 50.1495 153.565 50.5453 153.13 50.819C152.695 51.0926 152.188 51.2295 151.608 51.2295C151.041 51.2295 150.539 51.0926 150.1 50.819C149.662 50.5421 149.321 50.1495 149.077 49.6414C148.837 49.1299 148.713 48.5386 148.707 47.8676V47.3545C148.707 46.6704 148.827 46.0661 149.067 45.5416C149.308 45.0171 149.647 44.6164 150.086 44.3395C150.527 44.0594 151.031 43.9193 151.598 43.9193C152.175 43.9193 152.682 44.0578 153.12 44.3347C153.562 44.6083 153.901 45.0074 154.139 45.5318C154.376 46.0531 154.494 46.6606 154.494 47.3545V47.804ZM153.55 47.3447C153.55 46.501 153.379 45.8543 153.036 45.4048C152.694 44.952 152.214 44.7256 151.598 44.7256C150.998 44.7256 150.525 44.952 150.179 45.4048C149.837 45.8543 149.66 46.4798 149.651 47.2812V47.804C149.651 48.6217 149.824 49.2651 150.17 49.7342C150.519 50.2 150.998 50.433 151.608 50.433C152.221 50.433 152.695 50.2131 153.031 49.7733C153.368 49.3302 153.541 48.6966 153.55 47.8725V47.3447Z" fill="white"/>
<path d="M158.156 44.017L160.509 49.8222L162.862 44.017H164.092V51.1317H163.143V48.3611L163.232 45.3706L160.87 51.1317H160.143L157.785 45.3852L157.879 48.3611V51.1317H156.93V44.017H158.156Z" fill="white"/>
<path d="M168.006 44.017L170.359 49.8222L172.712 44.017H173.942V51.1317H172.993V48.3611L173.082 45.3706L170.72 51.1317H169.993L167.635 45.3852L167.729 48.3611V51.1317H166.78V44.017H168.006Z" fill="white"/>
<path d="M181.697 44.017V48.8546C181.693 49.5257 181.479 50.0746 181.054 50.5014C180.632 50.9281 180.059 51.1676 179.334 51.2197L179.082 51.2295C178.294 51.2295 177.667 51.0193 177.199 50.5991C176.731 50.1789 176.493 49.6006 176.487 48.8644V44.017H177.426V48.8351C177.426 49.3498 177.569 49.7505 177.856 50.0372C178.143 50.3206 178.551 50.4623 179.082 50.4623C179.619 50.4623 180.029 50.3206 180.313 50.0372C180.599 49.7537 180.743 49.3547 180.743 48.84V44.017H181.697Z" fill="white"/>
<path d="M189.737 51.1317H188.783L185.16 45.6491V51.1317H184.206V44.017H185.16L188.793 49.5241V44.017H189.737V51.1317Z" fill="white"/>
<path d="M193.453 51.1317H192.504V44.017H193.453V51.1317Z" fill="white"/>
<path d="M201.03 44.7891H198.716V51.1317H197.772V44.7891H195.464V44.017H201.03V44.7891Z" fill="white"/>
<path d="M205.383 47.589L207.261 44.017H208.339L205.858 48.4784V51.1317H204.909V48.4784L202.427 44.017H203.515L205.383 47.589Z" fill="white"/>
</svg>
